<mxfile host="app.diagrams.net" agent="Mozilla/5.0 (Windows NT 10.0; Win64; x64) AppleWebKit/537.36 (KHTML, like Gecko) Chrome/122.0.0.0 Safari/537.36" version="24.8.3" pages="3">
  <diagram name="МПО" id="34ezMIuzD62qinHBHo63">
    <mxGraphModel dx="1500" dy="793" grid="1" gridSize="10" guides="1" tooltips="1" connect="1" arrows="1" fold="1" page="1" pageScale="1" pageWidth="827" pageHeight="1169" math="0" shadow="0">
      <root>
        <mxCell id="0" />
        <mxCell id="1" parent="0" />
        <mxCell id="Bd73FpwBq0PtCsyljncP-1" value="Участник" style="swimlane;fontStyle=0;childLayout=stackLayout;horizontal=1;startSize=26;fillColor=none;horizontalStack=0;resizeParent=1;resizeParentMax=0;resizeLast=0;collapsible=1;marginBottom=0;whiteSpace=wrap;html=1;" parent="1" vertex="1">
          <mxGeometry x="4" y="280" width="140" height="52" as="geometry" />
        </mxCell>
        <mxCell id="Bd73FpwBq0PtCsyljncP-2" value="+ фио: String" style="text;strokeColor=none;fillColor=none;align=left;verticalAlign=top;spacingLeft=4;spacingRight=4;overflow=hidden;rotatable=0;points=[[0,0.5],[1,0.5]];portConstraint=eastwest;whiteSpace=wrap;html=1;" parent="Bd73FpwBq0PtCsyljncP-1" vertex="1">
          <mxGeometry y="26" width="140" height="26" as="geometry" />
        </mxCell>
        <mxCell id="Bd73FpwBq0PtCsyljncP-3" value="Клуб" style="swimlane;fontStyle=0;childLayout=stackLayout;horizontal=1;startSize=26;fillColor=none;horizontalStack=0;resizeParent=1;resizeParentMax=0;resizeLast=0;collapsible=1;marginBottom=0;whiteSpace=wrap;html=1;" parent="1" vertex="1">
          <mxGeometry x="4" y="30" width="140" height="78" as="geometry" />
        </mxCell>
        <mxCell id="Bd73FpwBq0PtCsyljncP-4" value="+ адрес: String" style="text;strokeColor=none;fillColor=none;align=left;verticalAlign=top;spacingLeft=4;spacingRight=4;overflow=hidden;rotatable=0;points=[[0,0.5],[1,0.5]];portConstraint=eastwest;whiteSpace=wrap;html=1;" parent="Bd73FpwBq0PtCsyljncP-3" vertex="1">
          <mxGeometry y="26" width="140" height="26" as="geometry" />
        </mxCell>
        <mxCell id="Bd73FpwBq0PtCsyljncP-5" value="+ телефон: String" style="text;strokeColor=none;fillColor=none;align=left;verticalAlign=top;spacingLeft=4;spacingRight=4;overflow=hidden;rotatable=0;points=[[0,0.5],[1,0.5]];portConstraint=eastwest;whiteSpace=wrap;html=1;" parent="Bd73FpwBq0PtCsyljncP-3" vertex="1">
          <mxGeometry y="52" width="140" height="26" as="geometry" />
        </mxCell>
        <mxCell id="Bd73FpwBq0PtCsyljncP-6" value="Сотрудник" style="swimlane;fontStyle=0;childLayout=stackLayout;horizontal=1;startSize=26;fillColor=none;horizontalStack=0;resizeParent=1;resizeParentMax=0;resizeLast=0;collapsible=1;marginBottom=0;whiteSpace=wrap;html=1;" parent="1" vertex="1">
          <mxGeometry x="4" y="430" width="140" height="52" as="geometry" />
        </mxCell>
        <mxCell id="Bd73FpwBq0PtCsyljncP-7" value="+ должность: String" style="text;strokeColor=none;fillColor=none;align=left;verticalAlign=top;spacingLeft=4;spacingRight=4;overflow=hidden;rotatable=0;points=[[0,0.5],[1,0.5]];portConstraint=eastwest;whiteSpace=wrap;html=1;" parent="Bd73FpwBq0PtCsyljncP-6" vertex="1">
          <mxGeometry y="26" width="140" height="26" as="geometry" />
        </mxCell>
        <mxCell id="Bd73FpwBq0PtCsyljncP-8" value="Услуга" style="swimlane;fontStyle=0;childLayout=stackLayout;horizontal=1;startSize=26;fillColor=none;horizontalStack=0;resizeParent=1;resizeParentMax=0;resizeLast=0;collapsible=1;marginBottom=0;whiteSpace=wrap;html=1;" parent="1" vertex="1">
          <mxGeometry x="544" y="30" width="140" height="78" as="geometry" />
        </mxCell>
        <mxCell id="Bd73FpwBq0PtCsyljncP-9" value="+ наименование: String" style="text;strokeColor=none;fillColor=none;align=left;verticalAlign=top;spacingLeft=4;spacingRight=4;overflow=hidden;rotatable=0;points=[[0,0.5],[1,0.5]];portConstraint=eastwest;whiteSpace=wrap;html=1;" parent="Bd73FpwBq0PtCsyljncP-8" vertex="1">
          <mxGeometry y="26" width="140" height="26" as="geometry" />
        </mxCell>
        <mxCell id="Bd73FpwBq0PtCsyljncP-10" value="+ цена: Integer" style="text;strokeColor=none;fillColor=none;align=left;verticalAlign=top;spacingLeft=4;spacingRight=4;overflow=hidden;rotatable=0;points=[[0,0.5],[1,0.5]];portConstraint=eastwest;whiteSpace=wrap;html=1;" parent="Bd73FpwBq0PtCsyljncP-8" vertex="1">
          <mxGeometry y="52" width="140" height="26" as="geometry" />
        </mxCell>
        <mxCell id="Bd73FpwBq0PtCsyljncP-11" value="Бонус" style="swimlane;fontStyle=0;childLayout=stackLayout;horizontal=1;startSize=26;fillColor=none;horizontalStack=0;resizeParent=1;resizeParentMax=0;resizeLast=0;collapsible=1;marginBottom=0;whiteSpace=wrap;html=1;" parent="1" vertex="1">
          <mxGeometry x="104" y="160" width="140" height="78" as="geometry" />
        </mxCell>
        <mxCell id="Bd73FpwBq0PtCsyljncP-12" value="+ наименование: String" style="text;strokeColor=none;fillColor=none;align=left;verticalAlign=top;spacingLeft=4;spacingRight=4;overflow=hidden;rotatable=0;points=[[0,0.5],[1,0.5]];portConstraint=eastwest;whiteSpace=wrap;html=1;" parent="Bd73FpwBq0PtCsyljncP-11" vertex="1">
          <mxGeometry y="26" width="140" height="26" as="geometry" />
        </mxCell>
        <mxCell id="Bd73FpwBq0PtCsyljncP-13" value="+ скидка: Integer" style="text;strokeColor=none;fillColor=none;align=left;verticalAlign=top;spacingLeft=4;spacingRight=4;overflow=hidden;rotatable=0;points=[[0,0.5],[1,0.5]];portConstraint=eastwest;whiteSpace=wrap;html=1;" parent="Bd73FpwBq0PtCsyljncP-11" vertex="1">
          <mxGeometry y="52" width="140" height="26" as="geometry" />
        </mxCell>
        <mxCell id="Bd73FpwBq0PtCsyljncP-14" value="" style="endArrow=diamondThin;endFill=0;endSize=24;html=1;rounded=0;exitX=0.5;exitY=0;exitDx=0;exitDy=0;" parent="1" source="Bd73FpwBq0PtCsyljncP-1" edge="1">
          <mxGeometry width="160" relative="1" as="geometry">
            <mxPoint x="273" y="300" as="sourcePoint" />
            <mxPoint x="74" y="110" as="targetPoint" />
          </mxGeometry>
        </mxCell>
        <mxCell id="Bd73FpwBq0PtCsyljncP-15" value="" style="endArrow=block;endSize=16;endFill=0;html=1;rounded=0;exitX=0.5;exitY=0;exitDx=0;exitDy=0;entryX=0.509;entryY=1.015;entryDx=0;entryDy=0;entryPerimeter=0;" parent="1" source="Bd73FpwBq0PtCsyljncP-6" target="Bd73FpwBq0PtCsyljncP-2" edge="1">
          <mxGeometry width="160" relative="1" as="geometry">
            <mxPoint x="-17" y="200" as="sourcePoint" />
            <mxPoint x="64" y="370" as="targetPoint" />
          </mxGeometry>
        </mxCell>
        <mxCell id="Bd73FpwBq0PtCsyljncP-16" value="Посещение" style="swimlane;fontStyle=0;childLayout=stackLayout;horizontal=1;startSize=26;fillColor=none;horizontalStack=0;resizeParent=1;resizeParentMax=0;resizeLast=0;collapsible=1;marginBottom=0;whiteSpace=wrap;html=1;" parent="1" vertex="1">
          <mxGeometry x="284" y="280" width="140" height="52" as="geometry" />
        </mxCell>
        <mxCell id="Bd73FpwBq0PtCsyljncP-17" value="+ дата: String" style="text;strokeColor=none;fillColor=none;align=left;verticalAlign=top;spacingLeft=4;spacingRight=4;overflow=hidden;rotatable=0;points=[[0,0.5],[1,0.5]];portConstraint=eastwest;whiteSpace=wrap;html=1;" parent="Bd73FpwBq0PtCsyljncP-16" vertex="1">
          <mxGeometry y="26" width="140" height="26" as="geometry" />
        </mxCell>
        <mxCell id="Bd73FpwBq0PtCsyljncP-18" value="" style="endArrow=diamondThin;endFill=0;endSize=24;html=1;rounded=0;exitX=0;exitY=0.5;exitDx=0;exitDy=0;entryX=1;entryY=0.5;entryDx=0;entryDy=0;" parent="1" source="Bd73FpwBq0PtCsyljncP-16" target="Bd73FpwBq0PtCsyljncP-1" edge="1">
          <mxGeometry width="160" relative="1" as="geometry">
            <mxPoint x="403" y="330" as="sourcePoint" />
            <mxPoint x="213" y="210" as="targetPoint" />
          </mxGeometry>
        </mxCell>
        <mxCell id="Bd73FpwBq0PtCsyljncP-22" value="" style="endArrow=open;endFill=1;endSize=12;html=1;rounded=0;entryX=0.497;entryY=1.031;entryDx=0;entryDy=0;exitX=1;exitY=0;exitDx=0;exitDy=0;entryPerimeter=0;" parent="1" source="Bd73FpwBq0PtCsyljncP-1" target="Bd73FpwBq0PtCsyljncP-13" edge="1">
          <mxGeometry width="160" relative="1" as="geometry">
            <mxPoint x="24" y="370" as="sourcePoint" />
            <mxPoint x="184" y="370" as="targetPoint" />
          </mxGeometry>
        </mxCell>
        <mxCell id="Bd73FpwBq0PtCsyljncP-23" value="" style="endArrow=diamondThin;endFill=1;endSize=24;html=1;rounded=0;entryX=1;entryY=0.5;entryDx=0;entryDy=0;exitX=0;exitY=0.5;exitDx=0;exitDy=0;" parent="1" source="Bd73FpwBq0PtCsyljncP-9" target="Bd73FpwBq0PtCsyljncP-4" edge="1">
          <mxGeometry width="160" relative="1" as="geometry">
            <mxPoint x="544" y="40" as="sourcePoint" />
            <mxPoint x="144" y="40" as="targetPoint" />
          </mxGeometry>
        </mxCell>
        <mxCell id="Bd73FpwBq0PtCsyljncP-28" value="" style="endArrow=diamondThin;endFill=1;endSize=24;html=1;rounded=0;entryX=0.994;entryY=1.046;entryDx=0;entryDy=0;entryPerimeter=0;exitX=0.5;exitY=0;exitDx=0;exitDy=0;" parent="1" source="Bd73FpwBq0PtCsyljncP-11" target="Bd73FpwBq0PtCsyljncP-5" edge="1">
          <mxGeometry width="160" relative="1" as="geometry">
            <mxPoint x="174" y="150" as="sourcePoint" />
            <mxPoint x="514" y="450" as="targetPoint" />
          </mxGeometry>
        </mxCell>
        <mxCell id="4rCbu5sNjqCN6aGRBiiq-1" value="" style="shape=rhombus;perimeter=rhombusPerimeter;whiteSpace=wrap;html=1;align=center;" parent="1" vertex="1">
          <mxGeometry x="554" y="276" width="120" height="60" as="geometry" />
        </mxCell>
        <mxCell id="4rCbu5sNjqCN6aGRBiiq-2" value="" style="endArrow=none;html=1;edgeStyle=orthogonalEdgeStyle;rounded=0;exitX=1;exitY=0.5;exitDx=0;exitDy=0;entryX=0.5;entryY=1;entryDx=0;entryDy=0;" parent="1" source="Bd73FpwBq0PtCsyljncP-6" target="4rCbu5sNjqCN6aGRBiiq-1" edge="1">
          <mxGeometry relative="1" as="geometry">
            <mxPoint x="244" y="500" as="sourcePoint" />
            <mxPoint x="404" y="500" as="targetPoint" />
          </mxGeometry>
        </mxCell>
        <mxCell id="4rCbu5sNjqCN6aGRBiiq-12" value="" style="endArrow=none;html=1;edgeStyle=orthogonalEdgeStyle;rounded=0;entryX=1;entryY=0.5;entryDx=0;entryDy=0;exitX=1;exitY=0.5;exitDx=0;exitDy=0;" parent="1" source="4rCbu5sNjqCN6aGRBiiq-1" target="Bd73FpwBq0PtCsyljncP-9" edge="1">
          <mxGeometry relative="1" as="geometry">
            <mxPoint x="544" y="238" as="sourcePoint" />
            <mxPoint x="704" y="238" as="targetPoint" />
            <Array as="points">
              <mxPoint x="734" y="306" />
              <mxPoint x="734" y="69" />
            </Array>
          </mxGeometry>
        </mxCell>
        <mxCell id="4rCbu5sNjqCN6aGRBiiq-17" value="" style="endArrow=none;html=1;edgeStyle=orthogonalEdgeStyle;rounded=0;entryX=0;entryY=0.5;entryDx=0;entryDy=0;exitX=1;exitY=-0.015;exitDx=0;exitDy=0;exitPerimeter=0;" parent="1" source="Bd73FpwBq0PtCsyljncP-17" target="4rCbu5sNjqCN6aGRBiiq-1" edge="1">
          <mxGeometry relative="1" as="geometry">
            <mxPoint x="394" y="250" as="sourcePoint" />
            <mxPoint x="554" y="250" as="targetPoint" />
            <Array as="points">
              <mxPoint x="454" y="306" />
              <mxPoint x="454" y="306" />
            </Array>
          </mxGeometry>
        </mxCell>
        <mxCell id="4rCbu5sNjqCN6aGRBiiq-24" value="АктОказанияУслуги" style="swimlane;fontStyle=0;childLayout=stackLayout;horizontal=1;startSize=26;fillColor=none;horizontalStack=0;resizeParent=1;resizeParentMax=0;resizeLast=0;collapsible=1;marginBottom=0;whiteSpace=wrap;html=1;" parent="1" vertex="1">
          <mxGeometry x="684" y="336" width="140" height="52" as="geometry" />
        </mxCell>
        <mxCell id="4rCbu5sNjqCN6aGRBiiq-25" value="+ дата: String" style="text;strokeColor=none;fillColor=none;align=left;verticalAlign=top;spacingLeft=4;spacingRight=4;overflow=hidden;rotatable=0;points=[[0,0.5],[1,0.5]];portConstraint=eastwest;whiteSpace=wrap;html=1;" parent="4rCbu5sNjqCN6aGRBiiq-24" vertex="1">
          <mxGeometry y="26" width="140" height="26" as="geometry" />
        </mxCell>
        <mxCell id="4rCbu5sNjqCN6aGRBiiq-26" value="" style="endArrow=none;dashed=1;html=1;dashPattern=1 3;strokeWidth=2;rounded=0;exitX=0.697;exitY=0.76;exitDx=0;exitDy=0;exitPerimeter=0;" parent="1" source="4rCbu5sNjqCN6aGRBiiq-1" target="4rCbu5sNjqCN6aGRBiiq-25" edge="1">
          <mxGeometry width="50" height="50" relative="1" as="geometry">
            <mxPoint x="404" y="280" as="sourcePoint" />
            <mxPoint x="454" y="230" as="targetPoint" />
          </mxGeometry>
        </mxCell>
      </root>
    </mxGraphModel>
  </diagram>
  <diagram id="AsAtK-F-Qii3jS9wDjsm" name="Диаграмма коммуникаций">
    <mxGraphModel dx="1235" dy="653" grid="1" gridSize="10" guides="1" tooltips="1" connect="1" arrows="1" fold="1" page="1" pageScale="1" pageWidth="827" pageHeight="1169" math="0" shadow="0">
      <root>
        <mxCell id="0" />
        <mxCell id="1" parent="0" />
        <mxCell id="Up54xYpboIILXr4FU1x3-1" value="уч:&lt;span style=&quot;background-color: initial;&quot;&gt;Участник&lt;/span&gt;" style="shape=umlActor;verticalLabelPosition=bottom;verticalAlign=top;html=1;" parent="1" vertex="1">
          <mxGeometry x="79" y="40" width="30" height="60" as="geometry" />
        </mxCell>
        <mxCell id="Up54xYpboIILXr4FU1x3-2" value=":СписокУслуг" style="html=1;whiteSpace=wrap;" parent="1" vertex="1">
          <mxGeometry x="259" y="60" width="110" height="20" as="geometry" />
        </mxCell>
        <mxCell id="Up54xYpboIILXr4FU1x3-3" value="" style="html=1;verticalAlign=bottom;endArrow=none;curved=0;rounded=0;entryX=0;entryY=0.5;entryDx=0;entryDy=0;endFill=0;" parent="1" source="Up54xYpboIILXr4FU1x3-1" target="Up54xYpboIILXr4FU1x3-2" edge="1">
          <mxGeometry x="0.0049" width="80" relative="1" as="geometry">
            <mxPoint x="149" y="69.5" as="sourcePoint" />
            <mxPoint x="229" y="69.5" as="targetPoint" />
            <mxPoint as="offset" />
          </mxGeometry>
        </mxCell>
        <mxCell id="Up54xYpboIILXr4FU1x3-5" value=":АктОказанияУслуги" style="html=1;whiteSpace=wrap;" parent="1" vertex="1">
          <mxGeometry x="509" y="180" width="110" height="20" as="geometry" />
        </mxCell>
        <mxCell id="Up54xYpboIILXr4FU1x3-6" value="" style="html=1;verticalAlign=bottom;endArrow=none;curved=0;rounded=0;endFill=0;entryX=0.5;entryY=0;entryDx=0;entryDy=0;exitX=1;exitY=0.5;exitDx=0;exitDy=0;" parent="1" source="Up54xYpboIILXr4FU1x3-2" target="Up54xYpboIILXr4FU1x3-5" edge="1">
          <mxGeometry x="0.5556" width="80" relative="1" as="geometry">
            <mxPoint x="564" y="80" as="sourcePoint" />
            <mxPoint x="563.58" y="170" as="targetPoint" />
            <mxPoint as="offset" />
          </mxGeometry>
        </mxCell>
        <mxCell id="Up54xYpboIILXr4FU1x3-7" value="" style="html=1;verticalAlign=bottom;endArrow=none;rounded=0;edgeStyle=orthogonalEdgeStyle;entryX=0;entryY=0;entryDx=0;entryDy=0;exitX=0;exitY=1;exitDx=0;exitDy=0;endFill=0;" parent="1" source="Up54xYpboIILXr4FU1x3-5" target="Up54xYpboIILXr4FU1x3-5" edge="1">
          <mxGeometry x="-0.0909" y="60" width="80" relative="1" as="geometry">
            <mxPoint x="499" y="250" as="sourcePoint" />
            <mxPoint x="459" y="260" as="targetPoint" />
            <Array as="points">
              <mxPoint x="609" y="200" />
              <mxPoint x="609" y="210" />
              <mxPoint x="639" y="210" />
              <mxPoint x="639" y="170" />
              <mxPoint x="609" y="170" />
              <mxPoint x="609" y="180" />
            </Array>
            <mxPoint as="offset" />
          </mxGeometry>
        </mxCell>
        <mxCell id="Up54xYpboIILXr4FU1x3-8" value="[уч.авторизован = true]&lt;div&gt;1: ВыбратьУслугу()&lt;/div&gt;" style="html=1;verticalAlign=bottom;endArrow=block;curved=0;rounded=0;" parent="1" edge="1">
          <mxGeometry width="80" relative="1" as="geometry">
            <mxPoint x="139" y="60" as="sourcePoint" />
            <mxPoint x="219" y="60" as="targetPoint" />
          </mxGeometry>
        </mxCell>
        <mxCell id="Up54xYpboIILXr4FU1x3-9" value="1.1: Составить&lt;div&gt;АктОказания&lt;/div&gt;&lt;div&gt;Услуги(услуга)&lt;/div&gt;" style="html=1;verticalAlign=bottom;endArrow=block;curved=0;rounded=0;" parent="1" edge="1">
          <mxGeometry width="80" relative="1" as="geometry">
            <mxPoint x="409" y="120" as="sourcePoint" />
            <mxPoint x="489" y="120" as="targetPoint" />
            <mxPoint as="offset" />
          </mxGeometry>
        </mxCell>
        <mxCell id="Up54xYpboIILXr4FU1x3-10" value="[уч.естьБонус = true]&lt;div&gt;1.1.1: ПересчитатьЦену()&lt;/div&gt;" style="html=1;verticalAlign=bottom;endArrow=block;curved=0;rounded=0;" parent="1" edge="1">
          <mxGeometry width="80" relative="1" as="geometry">
            <mxPoint x="669" y="200" as="sourcePoint" />
            <mxPoint x="749" y="200" as="targetPoint" />
          </mxGeometry>
        </mxCell>
        <mxCell id="Up54xYpboIILXr4FU1x3-14" value=":ПлатежнаяСистема" style="html=1;whiteSpace=wrap;" parent="1" vertex="1">
          <mxGeometry x="259" y="180" width="110" height="20" as="geometry" />
        </mxCell>
        <mxCell id="Up54xYpboIILXr4FU1x3-15" value="" style="endArrow=none;endFill=0;endSize=12;html=1;rounded=0;" parent="1" edge="1">
          <mxGeometry width="160" relative="1" as="geometry">
            <mxPoint x="369" y="190" as="sourcePoint" />
            <mxPoint x="509" y="190" as="targetPoint" />
          </mxGeometry>
        </mxCell>
        <mxCell id="Up54xYpboIILXr4FU1x3-16" value="1.2 СформироватьЧек()" style="html=1;verticalAlign=bottom;endArrow=block;curved=0;rounded=0;" parent="1" edge="1">
          <mxGeometry width="80" relative="1" as="geometry">
            <mxPoint x="483" y="179.17000000000007" as="sourcePoint" />
            <mxPoint x="403" y="179.17000000000007" as="targetPoint" />
          </mxGeometry>
        </mxCell>
        <mxCell id="Up54xYpboIILXr4FU1x3-17" value="" style="endArrow=none;endFill=0;endSize=12;html=1;rounded=0;entryX=0;entryY=0.5;entryDx=0;entryDy=0;" parent="1" source="Up54xYpboIILXr4FU1x3-1" target="Up54xYpboIILXr4FU1x3-14" edge="1">
          <mxGeometry width="160" relative="1" as="geometry">
            <mxPoint x="39" y="260" as="sourcePoint" />
            <mxPoint x="199" y="260" as="targetPoint" />
          </mxGeometry>
        </mxCell>
        <mxCell id="Up54xYpboIILXr4FU1x3-18" value="1.3: ОплатитьЧек()" style="html=1;verticalAlign=bottom;endArrow=block;curved=0;rounded=0;" parent="1" edge="1">
          <mxGeometry width="80" relative="1" as="geometry">
            <mxPoint x="149" y="140" as="sourcePoint" />
            <mxPoint x="229" y="140" as="targetPoint" />
          </mxGeometry>
        </mxCell>
        <mxCell id="Up54xYpboIILXr4FU1x3-19" value=":ЖурналУчета" style="html=1;whiteSpace=wrap;" parent="1" vertex="1">
          <mxGeometry x="259" y="310" width="110" height="20" as="geometry" />
        </mxCell>
        <mxCell id="Up54xYpboIILXr4FU1x3-20" value="" style="endArrow=open;endFill=1;endSize=12;html=1;rounded=0;entryX=0.5;entryY=0;entryDx=0;entryDy=0;exitX=0.5;exitY=1;exitDx=0;exitDy=0;" parent="1" source="Up54xYpboIILXr4FU1x3-14" target="Up54xYpboIILXr4FU1x3-19" edge="1">
          <mxGeometry width="160" relative="1" as="geometry">
            <mxPoint x="564" y="200" as="sourcePoint" />
            <mxPoint x="459" y="340" as="targetPoint" />
          </mxGeometry>
        </mxCell>
        <mxCell id="Up54xYpboIILXr4FU1x3-21" value="1.4: ВнестиЗаписьВЖурнал()" style="html=1;verticalAlign=bottom;endArrow=block;curved=0;rounded=0;" parent="1" edge="1">
          <mxGeometry width="80" relative="1" as="geometry">
            <mxPoint x="274" y="260" as="sourcePoint" />
            <mxPoint x="299" y="260" as="targetPoint" />
            <mxPoint as="offset" />
          </mxGeometry>
        </mxCell>
      </root>
    </mxGraphModel>
  </diagram>
  <diagram id="DAW3RWI6p2eDJGEadk-Z" name="Диаграмма анализа">
    <mxGraphModel dx="1050" dy="555" grid="1" gridSize="10" guides="1" tooltips="1" connect="1" arrows="1" fold="1" page="1" pageScale="1" pageWidth="827" pageHeight="1169" math="0" shadow="0">
      <root>
        <mxCell id="0" />
        <mxCell id="1" parent="0" />
        <mxCell id="cTv9TpWZvrW13vmWqFXr-1" value=":&lt;span style=&quot;background-color: initial;&quot;&gt;Участник&lt;/span&gt;" style="shape=umlActor;verticalLabelPosition=bottom;verticalAlign=top;html=1;" vertex="1" parent="1">
          <mxGeometry x="40" y="50" width="30" height="60" as="geometry" />
        </mxCell>
        <mxCell id="cTv9TpWZvrW13vmWqFXr-2" value=":&lt;span style=&quot;background-color: initial;&quot;&gt;Сотрудник&lt;/span&gt;" style="shape=umlActor;verticalLabelPosition=bottom;verticalAlign=top;html=1;" vertex="1" parent="1">
          <mxGeometry x="240" y="395" width="30" height="60" as="geometry" />
        </mxCell>
        <mxCell id="cTv9TpWZvrW13vmWqFXr-3" value=":Страница&lt;div&gt;Авторизации&lt;/div&gt;" style="shape=umlBoundary;whiteSpace=wrap;html=1;" vertex="1" parent="1">
          <mxGeometry x="200" y="50" width="100" height="80" as="geometry" />
        </mxCell>
        <mxCell id="jIqX1aa0dO7kyifzZ8Fp-5" value="" style="line;strokeWidth=1;fillColor=none;align=left;verticalAlign=middle;spacingTop=-1;spacingLeft=3;spacingRight=3;rotatable=0;labelPosition=right;points=[];portConstraint=eastwest;strokeColor=inherit;" vertex="1" parent="1">
          <mxGeometry x="70" y="86" width="130" height="8" as="geometry" />
        </mxCell>
        <mxCell id="a9ce7pUAgQXbH2zVGpFS-1" value=":Контроллер&lt;div&gt;Посещений&lt;/div&gt;" style="ellipse;shape=umlControl;whiteSpace=wrap;html=1;" vertex="1" parent="1">
          <mxGeometry x="450" y="50" width="70" height="80" as="geometry" />
        </mxCell>
        <mxCell id="a9ce7pUAgQXbH2zVGpFS-2" value="" style="line;strokeWidth=1;fillColor=none;align=left;verticalAlign=middle;spacingTop=-1;spacingLeft=3;spacingRight=3;rotatable=0;labelPosition=right;points=[];portConstraint=eastwest;strokeColor=inherit;" vertex="1" parent="1">
          <mxGeometry x="300" y="86" width="150" height="8" as="geometry" />
        </mxCell>
        <mxCell id="a9ce7pUAgQXbH2zVGpFS-3" value=":Страница&lt;div&gt;Выбора&lt;/div&gt;&lt;div&gt;Услуг&lt;/div&gt;" style="shape=umlBoundary;whiteSpace=wrap;html=1;" vertex="1" parent="1">
          <mxGeometry x="200" y="220" width="100" height="80" as="geometry" />
        </mxCell>
        <mxCell id="a9ce7pUAgQXbH2zVGpFS-4" value=":Контроллер&lt;div&gt;Услуг&lt;/div&gt;" style="ellipse;shape=umlControl;whiteSpace=wrap;html=1;" vertex="1" parent="1">
          <mxGeometry x="450" y="210" width="70" height="80" as="geometry" />
        </mxCell>
        <mxCell id="a9ce7pUAgQXbH2zVGpFS-19" value="" style="endArrow=none;endFill=0;endSize=12;html=1;rounded=0;entryX=0;entryY=0.5;entryDx=0;entryDy=0;entryPerimeter=0;" edge="1" parent="1" target="a9ce7pUAgQXbH2zVGpFS-3">
          <mxGeometry width="160" relative="1" as="geometry">
            <mxPoint x="80" y="110" as="sourcePoint" />
            <mxPoint x="370" y="450" as="targetPoint" />
          </mxGeometry>
        </mxCell>
        <mxCell id="a9ce7pUAgQXbH2zVGpFS-20" value="" style="endArrow=none;endFill=0;endSize=12;html=1;rounded=0;entryX=0.006;entryY=0.635;entryDx=0;entryDy=0;entryPerimeter=0;" edge="1" parent="1" target="a9ce7pUAgQXbH2zVGpFS-4">
          <mxGeometry width="160" relative="1" as="geometry">
            <mxPoint x="300" y="259.5" as="sourcePoint" />
            <mxPoint x="410" y="259.5" as="targetPoint" />
          </mxGeometry>
        </mxCell>
        <mxCell id="a9ce7pUAgQXbH2zVGpFS-21" value=":Страница&lt;div&gt;Для&lt;/div&gt;&lt;div&gt;Сотрудника&lt;/div&gt;" style="shape=umlBoundary;whiteSpace=wrap;html=1;" vertex="1" parent="1">
          <mxGeometry x="430" y="395" width="100" height="80" as="geometry" />
        </mxCell>
        <mxCell id="a9ce7pUAgQXbH2zVGpFS-22" value="" style="endArrow=none;endFill=0;endSize=12;html=1;rounded=0;" edge="1" parent="1">
          <mxGeometry width="160" relative="1" as="geometry">
            <mxPoint x="270" y="434.5" as="sourcePoint" />
            <mxPoint x="428" y="435" as="targetPoint" />
          </mxGeometry>
        </mxCell>
        <mxCell id="a9ce7pUAgQXbH2zVGpFS-23" value="" style="endArrow=none;endFill=0;endSize=12;html=1;rounded=0;exitX=0.556;exitY=-0.007;exitDx=0;exitDy=0;exitPerimeter=0;" edge="1" parent="1" source="a9ce7pUAgQXbH2zVGpFS-21">
          <mxGeometry width="160" relative="1" as="geometry">
            <mxPoint x="486" y="390" as="sourcePoint" />
            <mxPoint x="486" y="290" as="targetPoint" />
          </mxGeometry>
        </mxCell>
        <mxCell id="a9ce7pUAgQXbH2zVGpFS-24" value=":Журнал&lt;div&gt;Учёта&lt;/div&gt;" style="ellipse;shape=umlEntity;whiteSpace=wrap;html=1;" vertex="1" parent="1">
          <mxGeometry x="670" y="220" width="80" height="80" as="geometry" />
        </mxCell>
        <mxCell id="a9ce7pUAgQXbH2zVGpFS-25" value="" style="endArrow=none;endFill=0;endSize=12;html=1;rounded=0;" edge="1" parent="1">
          <mxGeometry width="160" relative="1" as="geometry">
            <mxPoint x="520" y="259.5" as="sourcePoint" />
            <mxPoint x="670" y="260" as="targetPoint" />
          </mxGeometry>
        </mxCell>
        <mxCell id="a9ce7pUAgQXbH2zVGpFS-27" value="1: Авторизация" style="html=1;verticalAlign=bottom;endArrow=block;curved=0;rounded=0;" edge="1" parent="1">
          <mxGeometry width="80" relative="1" as="geometry">
            <mxPoint x="95" y="79.5" as="sourcePoint" />
            <mxPoint x="175" y="79.5" as="targetPoint" />
          </mxGeometry>
        </mxCell>
        <mxCell id="a9ce7pUAgQXbH2zVGpFS-28" value="2: Регистрация&lt;div&gt;Посещения&lt;/div&gt;" style="html=1;verticalAlign=bottom;endArrow=block;curved=0;rounded=0;" edge="1" parent="1">
          <mxGeometry width="80" relative="1" as="geometry">
            <mxPoint x="340" y="79.5" as="sourcePoint" />
            <mxPoint x="420" y="79.5" as="targetPoint" />
          </mxGeometry>
        </mxCell>
        <mxCell id="a9ce7pUAgQXbH2zVGpFS-29" value="4: ВыборУслуги" style="html=1;verticalAlign=bottom;endArrow=block;curved=0;rounded=0;" edge="1" parent="1">
          <mxGeometry width="80" relative="1" as="geometry">
            <mxPoint x="95" y="190" as="sourcePoint" />
            <mxPoint x="175" y="190" as="targetPoint" />
          </mxGeometry>
        </mxCell>
        <mxCell id="a9ce7pUAgQXbH2zVGpFS-30" value="5: Регистрация&lt;div&gt;АктаОказания&lt;/div&gt;&lt;div&gt;Услуги&lt;/div&gt;" style="html=1;verticalAlign=bottom;endArrow=block;curved=0;rounded=0;" edge="1" parent="1">
          <mxGeometry width="80" relative="1" as="geometry">
            <mxPoint x="335" y="249.5" as="sourcePoint" />
            <mxPoint x="415" y="249.5" as="targetPoint" />
          </mxGeometry>
        </mxCell>
        <mxCell id="a9ce7pUAgQXbH2zVGpFS-31" value="6: Внести&lt;div&gt;АктОказания&lt;br&gt;Услуги&amp;nbsp;&lt;/div&gt;" style="html=1;verticalAlign=bottom;endArrow=block;curved=0;rounded=0;" edge="1" parent="1">
          <mxGeometry width="80" relative="1" as="geometry">
            <mxPoint x="554" y="249.5" as="sourcePoint" />
            <mxPoint x="634" y="249.5" as="targetPoint" />
          </mxGeometry>
        </mxCell>
        <mxCell id="a9ce7pUAgQXbH2zVGpFS-32" value="" style="html=1;verticalAlign=bottom;endArrow=none;curved=0;rounded=0;exitX=1.011;exitY=0.475;exitDx=0;exitDy=0;exitPerimeter=0;entryX=0;entryY=0;entryDx=0;entryDy=0;endFill=0;" edge="1" parent="1" source="a9ce7pUAgQXbH2zVGpFS-1" target="a9ce7pUAgQXbH2zVGpFS-24">
          <mxGeometry width="80" relative="1" as="geometry">
            <mxPoint x="600" y="210" as="sourcePoint" />
            <mxPoint x="680" y="210" as="targetPoint" />
          </mxGeometry>
        </mxCell>
        <mxCell id="a9ce7pUAgQXbH2zVGpFS-33" value="3: ВнестиПосещение" style="html=1;verticalAlign=bottom;endArrow=block;curved=0;rounded=0;" edge="1" parent="1">
          <mxGeometry width="80" relative="1" as="geometry">
            <mxPoint x="572" y="174.5" as="sourcePoint" />
            <mxPoint x="652" y="174.5" as="targetPoint" />
          </mxGeometry>
        </mxCell>
        <mxCell id="a9ce7pUAgQXbH2zVGpFS-35" value="7: Уведомить&lt;div&gt;Сотрудников&lt;/div&gt;" style="html=1;verticalAlign=bottom;endArrow=block;curved=0;rounded=0;" edge="1" parent="1">
          <mxGeometry width="80" relative="1" as="geometry">
            <mxPoint x="445" y="350" as="sourcePoint" />
            <mxPoint x="525" y="350" as="targetPoint" />
          </mxGeometry>
        </mxCell>
        <mxCell id="a9ce7pUAgQXbH2zVGpFS-36" value="8: Провести&lt;div&gt;Оказание&lt;/div&gt;&lt;div&gt;Услуги&lt;/div&gt;" style="html=1;verticalAlign=bottom;endArrow=block;curved=0;rounded=0;" edge="1" parent="1">
          <mxGeometry width="80" relative="1" as="geometry">
            <mxPoint x="390" y="424.5" as="sourcePoint" />
            <mxPoint x="310" y="424.5" as="targetPoint" />
          </mxGeometry>
        </mxCell>
      </root>
    </mxGraphModel>
  </diagram>
</mxfile>
